<svg id="visual" viewBox="0 0 900 600" width="900" height="600" xmlns="http://www.w3.org/2000/svg" xmlns:xlink="http://www.w3.org/1999/xlink" version="1.1"><rect x="0" y="0" width="900" height="600" fill="#404258"></rect><path d="M0 317L25 342.2C50 367.3 100 417.7 150 414.2C200 410.7 250 353.3 300 319C350 284.7 400 273.3 450 298.5C500 323.7 550 385.3 600 368C650 350.7 700 254.3 750 204.3C800 154.3 850 150.7 875 148.8L900 147L900 601L875 601C850 601 800 601 750 601C700 601 650 601 600 601C550 601 500 601 450 601C400 601 350 601 300 601C250 601 200 601 150 601C100 601 50 601 25 601L0 601Z" fill="#fff" stroke-linecap="round" stroke-linejoin="miter"></path></svg>